<?xml version="1.0" encoding="UTF-8"?>
<svg id="Layer_2" xmlns="http://www.w3.org/2000/svg" version="1.1" viewBox="0 0 367.7 56.2">
  <!-- Generator: Adobe Illustrator 29.5.1, SVG Export Plug-In . SVG Version: 2.1.0 Build 141)  -->
  <defs>
    <style>
      .st0 {
        fill: #e61e2a;
      }

      .st1 {
        fill: #fff;
      }

      .st2 {
        fill: #171b60;
      }
    </style>
  </defs>
  <g id="Layer_1-2">
    <g>
      <rect class="st0" x="295.1" y="1.9" width="72.5" height="33.1"/>
      <g>
        <path class="st0" d="M144.3,0h-4.9v4h-8.2v8.4h-6.2v12.3h6.2v8.4h8.2v4h4.4c10.2,0,19.1-8.2,19.1-18.5S154.5,0,144.3,0"/>
        <g>
          <polygon class="st2" points="254 3.5 258.2 3.5 258.2 2 243.4 2 243.4 3.5 247.6 3.5 247.6 33.5 243.4 33.5 243.4 35 258.2 35 258.2 33.5 254 33.5 254 3.5"/>
          <path class="st2" d="M281.1,35v-1.5h-4.6V3.2c7-.3,8.2,1.1,9.1,7.5h1.5l-.5-8.7h-26.5l-.5,8.7h1.6c.9-6.3,2.1-7.8,9.1-7.5v30.3h-4.6v1.5h15.5"/>
          <path class="st2" d="M181.3,16.1V3.5h4.3c4.4,0,6,1.1,6,6.7s-1.8,5.9-6.3,5.9h-4.1M240.5,3.5v-1.6h-12.2l-7.2,22.6-6.9-22.6h-12.1v1.6h4.3v30h-4.6c-4.3,0-4.4-3.6-4.3-4.3,0-8.1-1.7-11-9.5-12.2h0c4.6-.6,10.5-1.9,10.5-7.5s-6.4-7.5-11.8-7.5h-15.9v1.6h4.3v30h-4.3v1.6h14.9v-1.6h-4.3v-15.8c2.7-.1,5.8.6,7.2,1.8,1.3,1.1,2,4.5,2,8.6s2.6,7,7.6,7h14.3v-1.5h-4.2V4h.1l9.9,31h1.7l9.9-31h.1v29.5h-4.3v1.5h14.9v-1.5h-4.3V3.5h4.3,0Z"/>
        </g>
        <g>
          <path class="st2" d="M174.9,45c0-.3-.1-.4-.4-.4h-.8v-1.6h1.9c.8,0,1.2.3,1.2,1.2v7.2c0,1.9,1.2,3.1,3.1,3.1s3.1-1.2,3.1-3.1v-7.2c0-.8.4-1.2,1.2-1.2h1.8v1.6h-.8c-.3,0-.4.1-.4.4v6.5c0,2.8-2,4.8-4.9,4.8s-5-1.9-5-4.8v-6.5h0Z"/>
          <path class="st2" d="M187.2,54.4h.8c.3,0,.4-.2.4-.4v-11h1.7l5.8,8.2c.5.7,1.1,1.8,1.1,1.8h0s-.1-1-.1-1.8v-7c0-.8.4-1.2,1.2-1.2h1.8v1.6h-.8c-.3,0-.4.1-.4.4v11h-1.6l-5.8-8.2c-.5-.7-1.1-1.8-1.1-1.8h0s.1,1,.1,1.8v7c0,.8-.4,1.2-1.2,1.2h-1.9v-1.6h0Z"/>
          <polygon class="st2" points="201.9 54.4 203.1 54.4 203.1 44.6 201.9 44.6 201.9 43.1 206.2 43.1 206.2 44.6 204.9 44.6 204.9 54.4 206.2 54.4 206.2 56 201.9 56 201.9 54.4"/>
          <path class="st2" d="M208.2,45c-.1-.3-.3-.4-.6-.4h-.3v-1.6h1c.9,0,1.2.2,1.5,1.1l2.9,8c.2.7.5,1.8.5,1.8h0s.2-1.1.5-1.8l2.9-8c.3-.9.6-1.1,1.5-1.1h1v1.6h-.3c-.3,0-.5,0-.6.4l-4.1,11h-1.9l-4.1-11h0Z"/>
          <path class="st2" d="M221.4,44.6h-1.2v-1.6h7.6c.8,0,1.2.3,1.2,1.2v1.6h-1.7v-.8c0-.3-.1-.4-.4-.4h-3.7v4.1h4.5v1.6h-4.5v3.8c0,.3.1.4.4.4h3.8c.3,0,.4-.2.4-.4v-.8h1.7v1.6c0,.8-.4,1.2-1.2,1.2h-5.8c-.8,0-1.2-.3-1.2-1.2v-10.2h0Z"/>
          <path class="st2" d="M232.1,44.6h-1.2v-1.6h5.6c2.3,0,3.9,1.4,3.9,3.8s-1.4,3.2-2.3,3.4h0s.3.2.6.6l1.6,3.1c.2.4.5.4.9.4h.2v1.6h-.9c-1,0-1.4-.1-1.8-1l-1.8-3.5c-.3-.6-.6-.7-1.3-.7h-1.7v5.2h-1.8v-11.4h0ZM236.3,49.3c1.4,0,2.2-.9,2.2-2.3s-.8-2.3-2.2-2.3h-2.4v4.7s2.4,0,2.4,0Z"/>
          <path class="st2" d="M243.7,53s1.3,1.6,3.2,1.6,2.2-.7,2.2-1.9c0-2.7-6.3-2.3-6.3-6.3s1.7-3.5,4.1-3.5,3.7.6,3.7,2.4v1.1h-1.7v-.6c0-.7-1-1.2-2-1.2s-2.3.8-2.3,1.8c0,2.6,6.2,2,6.2,6.3s-1.5,3.7-4.1,3.7-4.3-1.9-4.3-1.9l1.1-1.3h0Z"/>
          <polygon class="st2" points="253 54.4 254.2 54.4 254.2 44.6 253 44.6 253 43.1 257.2 43.1 257.2 44.6 256 44.6 256 54.4 257.2 54.4 257.2 56 253 56 253 54.4"/>
          <path class="st2" d="M263.1,44.6h-2.6c-.3,0-.4.1-.4.4v.8h-1.6v-1.7c0-.8.3-1.1,1.1-1.1h8.9c.8,0,1.1.3,1.1,1.1v1.7h-1.6v-.8c0-.3-.1-.4-.4-.4h-2.6v11.4h-1.8v-11.4h0Z"/>
          <path class="st2" d="M274.8,50.4l-3.3-5.3c-.2-.4-.4-.5-.8-.5h-.4v-1.6h.8c.9,0,1.2.1,1.8,1l2,3.3c.4.7.8,1.5.8,1.5h0s.4-.7.8-1.5l2-3.3c.5-.9.9-1,1.7-1h.9v1.6h-.4c-.4,0-.6,0-.8.5l-3.3,5.3v5.7h-1.8v-5.7h0Z"/>
        </g>
      </g>
      <g>
        <path class="st1" d="M303.2,12.9h-1.5v-2.6h7.3c3,0,5.1,1.8,5.1,4.9s-2,4.2-2.7,4.3h0s.5.3.8.9l1.6,3.1c.2.5.6.5,1.1.5h.3v2.5h-1.6c-1.2,0-1.7-.2-2.3-1.2l-2.1-4.1c-.3-.6-.7-.8-1.5-.8h-1.5v6.1h-3s0-13.7,0-13.7ZM308.6,17.9c1.5,0,2.4-.9,2.4-2.6s-.9-2.5-2.4-2.5h-2.4v5.1h2.4,0Z"/>
        <path class="st1" d="M315.9,24h.4c.4,0,.6,0,.7-.5l4.8-13.2h3.1l4.8,13.2c.1.4.3.5.7.5h.4v2.5h-1.8c-1.1,0-1.6-.3-1.9-1.3l-1-2.8h-5.5l-1,2.8c-.4,1-.8,1.3-1.9,1.3h-1.8v-2.5h0ZM325.4,19.9l-1.4-4.1c-.3-.9-.6-2.4-.6-2.4h0s-.3,1.5-.6,2.4l-1.4,4.1h4.1Z"/>
        <path class="st1" d="M339.8,10c2.1,0,6.2.9,6.2,3.6v1.8h-2.7v-.9c0-1.2-2-1.7-3.4-1.7-2.9,0-5.2,2.1-5.2,5.5s2.3,5.8,5.3,5.8,4.9-2.2,4.9-2.2l1.6,2.2s-2.4,2.8-6.6,2.8-8.4-3.7-8.4-8.6,3.5-8.3,8.3-8.3Z"/>
        <path class="st1" d="M349.4,12.9h-1.5v-2.6h9.8c1.1,0,1.6.5,1.6,1.6v2.5h-2.7v-1c0-.3-.2-.5-.5-.5h-3.7v4.3h5.3v2.5h-5.3v3.9c0,.3.2.5.5.5h3.8c.3,0,.5-.2.5-.5v-1h2.7v2.5c0,1.1-.5,1.6-1.6,1.6h-7.4c-1.1,0-1.6-.5-1.6-1.6v-12.2h0Z"/>
      </g>
    </g>
  </g>
  <g>
    <path class="st2" d="M1.8,8.8H.4v-1.8h6.6c2.7,0,4.6,1.8,4.6,4.6s-1.9,4.7-4.6,4.7h-3.1v5.5H1.8s0-13.1,0-13.1ZM6.6,14.6c1.8,0,2.8-1.1,2.8-2.9s-1.1-2.8-2.8-2.8h-2.8v5.8h2.7Z"/>
    <path class="st2" d="M18.1,11c3.2,0,5.8,2.3,5.8,5.6s-2.6,5.6-5.8,5.6-5.7-2.4-5.7-5.6,2.5-5.6,5.7-5.6ZM18.1,20.4c2,0,3.7-1.6,3.7-3.8s-1.6-3.8-3.7-3.8-3.6,1.6-3.6,3.8,1.6,3.8,3.6,3.8Z"/>
    <path class="st2" d="M25.6,13.4c-.1-.3-.3-.4-.7-.4h-.3v-1.8h1.3c.9,0,1.3.2,1.6,1.1l1.9,6.3c.2.5.3,1.1.3,1.1h0s.1-.6.3-1.1l2.3-7.4h1.9l2.3,7.4c.2.5.3,1.1.3,1.1h0s0-.6.3-1.1l1.9-6.3c.3-.9.7-1.1,1.6-1.1h1.3v1.8h-.3c-.3,0-.5,0-.6.4l-2.8,8.5h-2.3l-2.2-6.8c-.2-.5-.3-1.2-.3-1.2h0s-.1.6-.3,1.2l-2.2,6.8h-2.3l-2.8-8.5h0Z"/>
    <path class="st2" d="M47.9,11c3,0,4.6,2.2,4.6,5s0,.8,0,.8h-7.8c.1,2.3,1.8,3.6,3.7,3.6s3.1-1.2,3.1-1.2l.9,1.4s-1.6,1.6-4.1,1.6-5.7-2.4-5.7-5.6,2.3-5.6,5.3-5.6h0ZM50.4,15.3c0-1.8-1.2-2.7-2.5-2.7s-2.8.9-3.1,2.7h5.6,0Z"/>
    <path class="st2" d="M55.2,13.5c0-.3-.2-.5-.5-.5h-.9v-1.8h1.9c.9,0,1.4.4,1.4,1.2v.7c0,.4,0,.7,0,.7h0c.5-1.6,1.7-2.8,3.4-2.8s.5,0,.5,0v2s-.3,0-.6,0c-1.3,0-2.5.9-3,2.5-.2.6-.3,1.3-.3,1.9v4.4h-2v-8.4h0Z"/>
    <path class="st2" d="M67.2,11c3,0,4.6,2.2,4.6,5s0,.8,0,.8h-7.8c.1,2.3,1.8,3.6,3.7,3.6s3.1-1.2,3.1-1.2l.9,1.4s-1.6,1.6-4.1,1.6-5.7-2.4-5.7-5.6,2.3-5.6,5.3-5.6h0ZM69.7,15.3c0-1.8-1.2-2.7-2.5-2.7s-2.8.9-3.1,2.7h5.6,0Z"/>
    <path class="st2" d="M78.3,11c2.5,0,3.3,1.6,3.3,1.6h0s0-.3,0-.7v-2.7c0-.3-.2-.5-.5-.5h-.9v-1.7h2c.9,0,1.3.4,1.3,1.3v11.3c0,.3.2.5.5.5h.9v1.8h-2c-.9,0-1.3-.4-1.3-1.1s0-.5,0-.5h0s-.9,1.9-3.5,1.9-4.7-2.3-4.7-5.6,2-5.6,4.8-5.6h0ZM81.7,16.5c0-1.9-1-3.8-3-3.8s-3,1.4-3,3.8,1.2,3.8,3,3.8,3.1-1.1,3.1-3.8h0Z"/>
    <path class="st2" d="M92.8,9.3c0-.3-.2-.5-.5-.5h-.9v-1.7h2c.9,0,1.3.4,1.3,1.3v3.5c0,.5,0,.9,0,.9h0s.9-1.7,3.4-1.7,4.7,2.3,4.7,5.6-2,5.6-4.8,5.6-3.3-1.8-3.3-1.8h0s0,.3,0,.8v.7h-2s0-12.7,0-12.7ZM97.9,20.4c1.7,0,3.1-1.4,3.1-3.8s-1.2-3.8-3-3.8-3,1.1-3,3.8,1,3.8,3,3.8h0Z"/>
    <path class="st2" d="M106.1,24.5c.8,0,1.5-.6,1.9-1.5l.5-1.2-3.6-8.4c-.1-.3-.3-.4-.7-.4h-.3v-1.8h1.2c.9,0,1.2.2,1.5,1.1l2.4,6c.2.5.4,1.3.4,1.3h0s.1-.7.4-1.3l2.2-6c.3-.8.7-1.1,1.6-1.1h1.2v1.8h-.3c-.3,0-.5,0-.7.4l-4.2,10.4c-.6,1.6-1.9,2.5-3.4,2.5s-2.5-1.1-2.5-1.1l.8-1.5s.7.8,1.6.8h0Z"/>
  </g>
</svg>